<?xml version="1.0" encoding="UTF-8"?>
<svg xmlns="http://www.w3.org/2000/svg" version="1.1" viewBox="0 0 1000 1000">
  <defs>
    <style>
      .cls-1 {
        fill: #16423c;
      }

      .cls-2 {
        fill: #c4dad2;
      }
    </style>
  </defs>
  <!-- Generator: Adobe Illustrator 28.7.1, SVG Export Plug-In . SVG Version: 1.2.0 Build 142)  -->
  <g>
    <g id="Layer_1">
      <rect class="cls-1" y="0" width="1000" height="1000"/>
      <g>
        <path class="cls-2" d="M76.4,604.9v-226.7h59.4l16.4,138.2,16.3-138.2h60v226.7h-35.7v-163.3l-22.4,163.3h-35l-23.7-163.3v163.3h-35.2Z"/>
        <path class="cls-2" d="M241.9,637.1v-29.2h19.1c2.9,0,4.3-1.2,4.3-3.5s-.1-2.4-.3-3.7l-26-189h38l11.1,142.2,13.1-142.2h38.2l-30.8,203.3c-1.1,7.3-3.2,12.8-6.4,16.6-3.1,3.7-8.3,5.6-15.5,5.6h-44.8Z"/>
        <path class="cls-2" d="M350.4,604.9v-226.7h51.5c10.8,0,19.3,2.8,25.7,8.4,6.3,5.6,10.8,13.5,13.6,23.8,2.7,10.3,4.1,22.6,4.1,36.8s-1.1,25.7-3.4,35.9c-2.3,10.2-6.4,18.1-12.2,23.6-5.9,5.6-14.2,8.4-25,8.4h-15.8v89.8h-38.3ZM388.7,474.4h2.2c7.2,0,11.7-2.4,13.3-7.1,1.6-4.7,2.4-11.7,2.4-20.9s-.8-15.2-2.4-19.9c-1.6-4.7-5.3-7-11.2-7h-4.3v54.9Z"/>
        <path class="cls-2" d="M456.9,604.9v-193.2h40.3v21.5c1.9-7.5,5.3-13.3,10.2-17.5,4.9-4.2,11-6.3,18.4-6.3v38.5c-3.3,0-7.1.4-11.6,1.2-4.5.8-8.5,1.9-11.9,3.3-3.4,1.4-5.1,3-5.1,4.7v147.7h-40.3Z"/>
        <path class="cls-2" d="M565.8,607c-9.2,0-16.3-2.5-21.1-7.5-4.8-5-8.1-11.8-9.9-20.5-1.8-8.7-2.7-18.5-2.7-29.5s1-21.4,3-28.9c2-7.5,5.4-13.7,10.3-18.5,4.8-4.8,11.5-8.9,20-12.2l24.6-9.8v-19.8c0-10.4-2.9-15.6-8.8-15.6s-8,4.2-8,12.6v11.6h-38.6c0-.7-.1-1.6-.1-2.6v-3.7c0-19.2,3.9-32.9,11.7-40.9,7.8-8,20.2-12,37.1-12s16.8,1.8,23.8,5.5c7,3.7,12.6,9,16.7,16.2,4.1,7.1,6.2,15.9,6.2,26.4v147.2h-39.5v-22.9c-1.9,8.1-5.1,14.3-9.5,18.5-4.4,4.3-9.5,6.4-15.2,6.4ZM581.4,571.2c3.3,0,5.5-1.6,6.6-4.8,1.2-3.2,1.8-6.6,1.8-10.3v-53.8c-5.5,2.6-9.7,5.8-12.7,9.7-3,3.9-4.5,9.6-4.5,17.2v24.9c0,11.4,3,17.1,8.9,17.1Z"/>
        <path class="cls-2" d="M642.1,637.1v-29.2h19.1c2.9,0,4.3-1.2,4.3-3.5s-.1-2.4-.3-3.7l-26-189h38l11.1,142.2,13.1-142.2h38.2l-30.8,203.3c-1.1,7.3-3.2,12.8-6.4,16.6-3.1,3.7-8.3,5.6-15.5,5.6h-44.8Z"/>
        <path class="cls-2" d="M796.4,607c-11.8,0-21.2-2.6-28.3-7.7-7-5.2-12-12.6-15.1-22.3-3-9.7-4.5-21.4-4.5-35v-77.7c0-17.9,4.4-31.5,13.3-40.8,8.9-9.2,21.1-13.8,36.6-13.8,31.9,0,47.9,18.2,47.9,54.6v14c0,17-.1,28.4-.4,34.3h-57.6v37.4c0,3.4.2,6.8.6,10.1.4,3.3,1.2,6,2.5,8.2,1.3,2.1,3.4,3.2,6.3,3.2,4.1,0,6.7-2.1,7.8-6.2,1-4.2,1.6-9.6,1.6-16.3v-18.5h39.5v10.9c0,14.4-1.5,26.5-4.6,36.3-3.1,9.7-8.2,17.1-15.5,22-7.3,4.9-17.2,7.4-29.8,7.4ZM788,489.6h18.8v-26c0-7-.7-12-2.2-15-1.5-3-3.7-4.6-6.6-4.6s-5.6,1.5-7.4,4.4c-1.7,2.9-2.6,8-2.6,15.2v26Z"/>
        <path class="cls-2" d="M860.7,604.9v-193.2h40.3v21.5c1.9-7.5,5.3-13.3,10.2-17.5,4.9-4.2,11-6.3,18.4-6.3v38.5c-3.3,0-7.1.4-11.6,1.2-4.5.8-8.5,1.9-11.9,3.3-3.4,1.4-5.1,3-5.1,4.7v147.7h-40.3Z"/>
      </g>
    </g>
  </g>
</svg>