<?xml version="1.0" encoding="UTF-8"?>
<svg xmlns="http://www.w3.org/2000/svg" version="1.1" viewBox="0 0 1000 1000">
  <defs>
    <style>
      .cls-1 {
        fill: #16423c;
      }

      .cls-2 {
        fill: #c4dad2;
      }
    </style>
  </defs>
  <!-- Generator: Adobe Illustrator 28.7.1, SVG Export Plug-In . SVG Version: 1.2.0 Build 142)  -->
  <g>
    <g id="Layer_1">
      <g>
        <rect class="cls-1" x=".3" y="-.3" width="1000" height="1000"/>
        <path class="cls-2" d="M700,739.2l-.3-68.4-86.3-7s11.6-25,11.6-51.7-62-89.9-110.4-101.4v-7.6s4.3-6.3,4.3-15.7-6.4-11.1-6.4-11.1c0,0,2.3-4.3,2.3-7.6s-3.7-10.1-3.7-10.1c0,0-3.7,6.8-3.7,10.1s2.3,7.6,2.3,7.6c0,0-6.4,1.7-6.4,11.1s4.3,15.7,4.3,15.7v7.6c-48.4,11.5-110.4,74.7-110.4,101.4s11.6,51.7,11.6,51.7h-25.4l-6-205.5h3.1v-6.5h-3.1v-12s8.6-10.2,8.6-18.5-8.6-11.4-8.6-17.2,8-17.9,8-24-8-8.9-8-8.9v-38.5s3.7-8.6,3.7-16.6-13.9-23.2-23.1-31.5c0,0,3.4-6.5,3.4-11.1s-6.8-13.2-6.8-13.2c0,0-6.8,8.6-6.8,13.2s3.4,11.1,3.4,11.1c-9.2,8.3-23.1,23.5-23.1,31.5s3.7,16.6,3.7,16.6v38.5s-8,2.8-8,8.9,8,18.2,8,24-8.6,8.9-8.6,17.2,8.6,18.5,8.6,18.5v12h-3.1v6.5h3.1l-6.2,211c-24,0-25.2,11.7-25.2,11.7v19.7c0,8.9,15.9,14.3,15.9,14.3v24.2h383.6ZM370.4,394v17.3s-5.1-3.3-5.1-7.2,5.1-10.1,5.1-10.1ZM353.7,389.7c11.5,23.4-.8,21.5-.8,21.5-10.3.2.8-21.5.8-21.5ZM337.6,394s5.1,6.1,5.1,10.1-5.1,7.2-5.1,7.2v-17.3Z"/>
      </g>
    </g>
  </g>
</svg>